<?xml version="1.0" encoding="UTF-8" standalone="no"?>
<!DOCTYPE svg PUBLIC "-//W3C//DTD SVG 1.1//EN" "http://www.w3.org/Graphics/SVG/1.1/DTD/svg11.dtd">
<svg width="100%" height="100%" viewBox="0 0 50 50" version="1.1" xmlns="http://www.w3.org/2000/svg" xmlns:xlink="http://www.w3.org/1999/xlink" xml:space="preserve" xmlns:serif="http://www.serif.com/" style="fill-rule:evenodd;clip-rule:evenodd;stroke-linejoin:round;stroke-miterlimit:2;">
    <path d="M16,3C8.832,3 3,8.832 3,16L3,34C3,41.168 8.832,47 16,47L34,47C41.168,47 47,41.168 47,34L47,16C47,8.832 41.168,3 34,3L16,3ZM16,5L34,5C40.086,5 45,9.914 45,16L45,34C45,40.086 40.086,45 34,45L16,45C9.914,45 5,40.086 5,34L5,16C5,9.914 9.914,5 16,5ZM37,11C35.903,11 35,11.903 35,13C35,14.097 35.903,15 37,15C38.097,15 39,14.097 39,13C39,11.903 38.097,11 37,11ZM25,14C18.937,14 14,18.937 14,25C14,31.063 18.937,36 25,36C31.063,36 36,31.063 36,25C36,18.937 31.063,14 25,14ZM25,16C29.982,16 34,20.018 34,25C34,29.982 29.982,34 25,34C20.018,34 16,29.982 16,25C16,20.018 20.018,16 25,16Z" style="fill:white;fill-rule:nonzero;"/>
</svg>
