<?xml version="1.0" encoding="UTF-8" standalone="no"?>
<!DOCTYPE svg PUBLIC "-//W3C//DTD SVG 1.1//EN" "http://www.w3.org/Graphics/SVG/1.1/DTD/svg11.dtd">
<svg width="100%" height="100%" viewBox="0 0 100 100" version="1.1" xmlns="http://www.w3.org/2000/svg" xmlns:xlink="http://www.w3.org/1999/xlink" xml:space="preserve" xmlns:serif="http://www.serif.com/" style="fill-rule:evenodd;clip-rule:evenodd;stroke-linejoin:round;stroke-miterlimit:2;">
    <g transform="matrix(1.50334,0,0,1.50334,-25.1664,-25.168)">
        <path d="M74.012,44.646C73.558,44.688 73.098,44.716 72.632,44.716C67.386,44.716 62.776,42.018 60.094,37.94L60.094,61.014C60.094,70.432 52.458,78.068 43.04,78.068C33.622,78.068 25.986,70.432 25.986,61.014C25.986,51.596 33.622,43.96 43.04,43.96C43.396,43.96 43.744,43.992 44.094,44.014L44.094,52.418C43.744,52.376 43.4,52.312 43.04,52.312C38.232,52.312 34.336,56.208 34.336,61.016C34.336,65.824 38.232,69.72 43.04,69.72C47.848,69.72 52.094,65.932 52.094,61.124C52.094,60.934 52.178,21.936 52.178,21.936L60.21,21.936C60.966,29.118 66.764,34.786 74.012,35.306L74.012,44.646Z" style="fill:white;fill-rule:nonzero;"/>
    </g>
</svg>
