<?xml version="1.0" encoding="UTF-8" standalone="no"?>
<!DOCTYPE svg PUBLIC "-//W3C//DTD SVG 1.1//EN" "http://www.w3.org/Graphics/SVG/1.1/DTD/svg11.dtd">
<svg width="100%" height="100%" viewBox="0 0 60 60" version="1.1" xmlns="http://www.w3.org/2000/svg" xmlns:xlink="http://www.w3.org/1999/xlink" xml:space="preserve" xmlns:serif="http://www.serif.com/" style="fill-rule:evenodd;clip-rule:evenodd;stroke-linejoin:round;stroke-miterlimit:2;">
    <path d="M56,13.874C54.086,14.724 52.03,15.296 49.872,15.554C52.076,14.234 53.766,12.144 54.562,9.652C52.502,10.874 50.218,11.762 47.786,12.242C45.84,10.168 43.068,8.872 40,8.872C34.108,8.872 29.332,13.65 29.332,19.54C29.332,20.376 29.428,21.192 29.608,21.97C20.742,21.526 12.882,17.278 7.618,10.822C6.702,12.398 6.176,14.23 6.176,16.188C6.176,19.888 8.058,23.154 10.92,25.066C9.172,25.01 7.526,24.53 6.088,23.732L6.088,23.866C6.088,29.036 9.764,33.348 14.646,34.326C13.752,34.57 12.808,34.7 11.834,34.7C11.148,34.7 10.478,34.632 9.828,34.51C11.186,38.748 15.126,41.834 19.794,41.92C16.144,44.782 11.544,46.488 6.544,46.488C5.684,46.488 4.834,46.438 3.998,46.338C8.72,49.364 14.326,51.13 20.352,51.13C39.976,51.13 50.704,34.874 50.704,20.776C50.704,20.314 50.694,19.854 50.674,19.396C52.76,17.89 54.57,16.012 56,13.874Z" style="fill:white;fill-rule:nonzero;"/>
</svg>
