<?xml version="1.0" encoding="UTF-8"?>
<svg id="Layer_1" data-name="Layer 1" xmlns="http://www.w3.org/2000/svg" version="1.1" xmlns:xlink="http://www.w3.org/1999/xlink" viewBox="0 0 1920 1080">
  <defs>
    <style>
      .cls-1 {
        fill: #2e3192;
      }

      .cls-1, .cls-2 {
        stroke-width: 0px;
      }

      .cls-2, .cls-3 {
        fill: #000;
      }

      .cls-3 {
        font-family: CocogoosePro-Thin, 'Cocogoose Pro';
        font-size: 163.1px;
        font-weight: 200;
      }
    </style>
  </defs>
  <image width="300" height="176" transform="translate(75 -339.3)" xlink:href="../../Downloads/9025580074_4e66274c-c711-4161-98fe-779149d56928.png"/>
  <text class="cls-3" transform="translate(575.5 -377.4)"><tspan x="0" y="0">ISAAC</tspan><tspan x="0" y="195.8">MANRÍQUEZ</tspan></text>
  <g>
    <path class="cls-2" d="M258.1,279.5h6.1v172.9h-6.1v-172.9Z"/>
    <path class="cls-2" d="M318.4,419l4.3-3.5c10.7,22.2,38,35.4,68.6,35.4s59.6-17.9,59.6-41.8-30.3-34.9-61.4-42.1c-34-8.1-64.5-16.1-64.5-46.4s28.2-45.2,62.2-45.2,55.6,14.7,67.4,34.9l-4.3,3.5c-11.2-19-33.7-32.8-63.1-32.8s-56.5,15.3-56.5,39.5,28.5,33.7,60.8,41.2c32.6,7.5,65.1,15.8,65.1,47s-27.1,47.8-65.1,47.8-61.1-13.5-73.2-37.5Z"/>
    <path class="cls-2" d="M610.5,392.2h-90.2l-25.1,60.2h-6.3l72.9-172.9h7.2l73.2,172.9h-6.3l-25.4-60.2ZM608.5,387l-43.2-102.3-42.6,102.3h85.9Z"/>
    <path class="cls-2" d="M792.6,392.2h-90.2l-25.1,60.2h-6.3l72.9-172.9h7.2l73.2,172.9h-6.3l-25.4-60.2ZM790.6,387l-43.2-102.3-42.6,102.3h85.9Z"/>
    <path class="cls-2" d="M936.7,456.4c-48.4,0-85.3-37.5-85.3-90.2s36.9-90.8,87.3-90.8,52.7,12.4,67.7,33.4l-4.6,3.2c-15.6-21-38.6-31.1-63.4-31.1-46.7,0-81,35.4-81,85.3s34.6,84.7,79.5,84.7,49.8-11.5,67.4-33.7l4,3.5c-18.7,23.3-43.8,35.7-71.7,35.7Z"/>
    <path class="cls-2" d="M423,664.3l-10.9-164.8-70.3,141.8h-4.9l-70-141.8-10.9,164.8h-5.8l11.5-172.9h7.5l70.3,142.9,70.3-142.9h7.5l11.5,172.9h-5.8Z"/>
    <path class="cls-2" d="M594.4,604.1h-90.2l-25.1,60.2h-6.3l72.9-172.9h7.2l73.2,172.9h-6.3l-25.4-60.2ZM592.4,598.9l-43.2-102.3-42.6,102.3h85.9Z"/>
    <path class="cls-2" d="M807.6,491.5v172.9h-6.3l-125.3-164.5v164.5h-5.8v-172.9h6.3l125.3,164.5v-164.5h5.8Z"/>
    <path class="cls-2" d="M1003.2,664.3h-6.1c0-53-22.2-78.4-68.3-78.4h-53.3v78.4h-6.1v-172.9h72.6c37.7,0,56.8,20.7,56.8,46.7s-16.4,42.1-43.5,46.4c32,8.4,47.8,34.9,47.8,79.8ZM941.6,580.8c31.4,0,51.3-17,51.3-42.4s-17-41.8-50.7-41.8h-66.6v84.1h66Z"/>
    <path class="cls-2" d="M1063.5,491.5h6.1v172.9h-6.1v-172.9Z"/>
    <path class="cls-2" d="M1307.5,698.1l-45.2-42.4c-13.8,8.1-30.3,12.7-48.7,12.7-53,0-90.8-37.5-90.8-90.5s37.7-90.5,90.8-90.5,91,37.5,91,90.5-14.4,59.1-37.5,74.9l44.1,40.9-3.7,4.3ZM1213.6,662.9c49,0,84.7-34.6,84.7-85s-35.4-85-84.7-85-84.7,34.9-84.7,85,35.4,85,84.7,85Z"/>
    <path class="cls-2" d="M1418.4,668.4c-43.2,0-70.9-31.1-70.9-82.1v-94.8h6.1v94.8c0,47.8,25.6,76.6,65.1,76.6s65.4-28.5,65.4-75.8v-95.7h6.1v95.9c0,50.4-27.9,81-71.7,81Z"/>
    <path class="cls-2" d="M1671.1,658.9v5.5h-123.6v-172.9h120.7v5.5h-114.7v76.1h108.9v5.2h-108.9v80.7h117.6Z"/>
    <path class="cls-2" d="M1708.3,659.4c6.3-.3,13.5-.3,19-.3h114.4v5.2h-140.6v-4.6l126.8-155.9c2.9-3.5,4.9-5.5,7.2-7.5-9.2.3-16.7.3-22.5.3h-109.8v-5.2h138.9v4.9l-128.5,157.9c-1.7,2-3.2,3.5-4.9,5.2Z"/>
  </g>
  <path class="cls-1" d="M160.8,274.3h18.2v521.4h-18.2V274.3Z"/>
  <g>
    <path class="cls-1" d="M293,716.8h-19.2v14.4h19.2v41c0,4.8-1.2,8.5-3.6,11.1-2.4,2.6-5.9,3.9-10.3,3.9s-7.8-1.3-10.3-3.9c-2.4-2.6-3.6-6.3-3.6-11h-16.3c0,9.4,2.6,16.8,7.8,22,5.2,5.2,12.6,7.8,22.1,7.8s16.7-2.6,22-7.8c5.3-5.2,7.9-12.6,7.9-22v-55.4h-15.6Z"/>
    <path class="cls-1" d="M376.2,779.5v-41.5h-16v29.8c0,6.8-1,11.7-2.9,14.6-1.9,2.9-4.7,4.4-8.5,4.4s-5.1-1-6.8-2.9c-1.6-2-2.5-4.7-2.5-8.3v-37.5h-16v41.5c0,7.1,1.6,12.7,4.9,16.6,3.3,3.9,7.9,5.9,13.9,5.9s7.6-1.1,10.5-3.4c2.8-2.3,4.8-5.6,5.7-9.8h1.8l.9,12.7,23.6-.6v-13l-8.6-1.3v-7Z"/>
    <path class="cls-1" d="M428.2,736.9c-4.7,0-8.1,1-10.4,3.1-2.3,2.1-3.7,5.2-4.3,9.4h-1.8l-1.5-11.4h-14.3v62.8h16v-31.3c0-11.6,4-17.4,12.1-17.4s5.1,1,6.7,3.1c1.6,2.1,2.3,5,2.3,8.8v36.9h16v-40.9c0-7.3-1.8-13-5.4-17.1-3.6-4-8.8-6-15.4-6Z"/>
    <polygon class="cls-1" points="505.6 752.9 505.6 741.6 505.6 738.1 470 738.1 470 752.9 489.6 752.9 489.6 786.1 466.4 786.1 466.4 800.9 489.6 800.9 490.8 800.9 504.5 800.9 505.6 800.9 524.2 800.9 524.2 786.1 505.6 786.1 505.6 752.9"/>
    <path class="cls-1" d="M496.9,729.6c3,0,5.5-.9,7.4-2.8,1.9-1.9,2.8-4.4,2.8-7.4s-.9-5.5-2.8-7.4c-1.9-1.9-4.4-2.8-7.4-2.8s-5.5.9-7.4,2.8c-1.9,1.9-2.8,4.4-2.8,7.4s.9,5.5,2.8,7.4c1.9,1.9,4.4,2.8,7.4,2.8Z"/>
    <path class="cls-1" d="M564.6,736.9c-9,0-16,2.8-21,8.5-5,5.7-7.5,13.7-7.5,24.1s2.5,18.4,7.5,24c5,5.7,12,8.5,21,8.5s16-2.8,21-8.5c5-5.7,7.5-13.7,7.5-24s-2.5-18.4-7.5-24.1c-5-5.7-12-8.5-21-8.5ZM573.1,782.3c-2,3-4.8,4.5-8.4,4.5s-6.5-1.5-8.5-4.5c-2-3-3-7.3-3-12.8s1-9.8,3-12.9c2-3,4.8-4.5,8.5-4.5s6.5,1.5,8.5,4.5c2,3,3,7.3,3,12.9s-1,9.8-3,12.8Z"/>
    <path class="cls-1" d="M650.8,736.9c-10.1,0-15.4,5.1-16,15.3h-2.2l-1.9-14.2h-24.5v13.7h10.9v35.3h-13.3v13.7h43.9v-13.7h-14.7v-13.3c0-7,1-12.4,2.9-16.2,1.9-3.8,4.9-5.7,8.8-5.7s5.2.8,6.6,2.4c1.4,1.6,2,4.3,2,8h15.9c0-8.3-1.6-14.6-4.8-19-3.2-4.4-7.7-6.6-13.7-6.6Z"/>
    <path class="cls-1" d="M800.9,724.2c-5.8-5-13.9-7.4-24.5-7.4h-25.8v84.1h15.6v-24.1h10.1c10.5,0,18.7-2.8,24.5-8.3,5.8-5.5,8.6-13.3,8.6-23.3s-2.9-16-8.6-21ZM788.4,758.1c-2.8,2.8-6.8,4.3-12,4.3h-10.1v-31.2h10.1c5.2,0,9.2,1.3,12,3.9,2.8,2.6,4.2,6.3,4.2,11.1s-1.4,9.1-4.2,11.9Z"/>
    <path class="cls-1" d="M864,736.9c-10.1,0-15.4,5.1-16,15.3h-2.2l-1.9-14.2h-24.5v13.7h10.9v35.3h-13.3v13.7h43.9v-13.7h-14.7v-13.3c0-7,1-12.4,2.9-16.2,1.9-3.8,4.9-5.7,8.8-5.7s5.2.8,6.6,2.4c1.4,1.6,2,4.3,2,8h15.9c0-8.3-1.6-14.6-4.8-19-3.2-4.4-7.7-6.6-13.7-6.6Z"/>
    <path class="cls-1" d="M919.9,736.9c-9,0-16,2.8-21,8.5-5,5.7-7.5,13.7-7.5,24.1s2.5,18.4,7.5,24c5,5.7,12,8.5,21,8.5s16-2.8,21-8.5c5-5.7,7.5-13.7,7.5-24s-2.5-18.4-7.5-24.1-12-8.5-21-8.5ZM928.4,782.3c-2,3-4.8,4.5-8.4,4.5s-6.5-1.5-8.5-4.5c-2-3-3-7.3-3-12.8s1-9.8,3-12.9c2-3,4.8-4.5,8.5-4.5s6.5,1.5,8.5,4.5c2,3,3,7.3,3,12.9s-1,9.8-3,12.8Z"/>
    <path class="cls-1" d="M1001.6,749.5h-1.1c-.8-4.2-2.4-7.4-4.8-9.4-2.5-2.1-6.1-3.1-10.9-3.1-7.9,0-13.9,2.8-18.3,8.5-4.3,5.7-6.5,13.7-6.5,24.1s2.2,18.5,6.5,24.1c4.3,5.6,10.4,8.4,18.2,8.4s7.9-1,10.5-3.1c2.6-2.1,4.3-5.2,4.9-9.4h1.3v7.7c0,5.6-1.2,9.9-3.7,12.8-2.5,2.9-6.5,4.4-12,4.6l-20.1.6.6,14,18.4-.6c11.5-.4,19.9-3.2,25.1-8.6,5.2-5.3,7.9-13.6,7.9-24.7v-57.2h-14.9l-1,11.4ZM998.8,782.8c-1.8,2.8-5,4.1-9.6,4.1s-7.1-1.5-9.1-4.4c-2.1-2.9-3.1-7.3-3.1-13s1.1-9.9,3.2-12.9c2.1-3.1,5.2-4.6,9.1-4.6s7.2,1.4,9.2,4.2c2,2.8,3,7.2,3,13.3s-.9,10.5-2.7,13.3Z"/>
    <path class="cls-1" d="M1077.2,736.9c-10.1,0-15.4,5.1-16,15.3h-2.2l-1.9-14.2h-24.5v13.7h10.9v35.3h-13.3v13.7h43.9v-13.7h-14.7v-13.3c0-7,1-12.4,2.9-16.2,1.9-3.8,4.9-5.7,8.8-5.7s5.2.8,6.6,2.4c1.4,1.6,2,4.3,2,8h15.9c0-8.3-1.6-14.6-4.8-19-3.2-4.4-7.7-6.6-13.7-6.6Z"/>
    <path class="cls-1" d="M1158.4,763.3c0-8.3-2.8-14.6-8.3-18.9-5.5-4.3-14-6.6-25.3-6.7l-13.7-.2-1.2,14.6,16,.4c5.6.2,9.9,1,12.8,2.6s4.3,4,4.3,7.4v.2c-1.3-.3-2.6-.5-3.9-.7-2.5-.4-5.5-.5-8.9-.5-8.9,0-15.8,1.9-20.7,5.6-4.9,3.8-7.3,9.1-7.3,16.2s1.9,10.7,5.6,14c3.7,3.3,8.9,4.9,15.6,4.9s7.2-.6,10-1.8c2.8-1.2,4.9-3,6.5-5.4,1.3-2,2-4.4,2.3-7.2h1.4l1,13.9,22.5-.6v-13l-8.7-1.3v-23.2ZM1136,786.6c-2.3,1.3-5.2,2-8.7,2s-5.1-.6-6.6-1.7c-1.5-1.1-2.2-2.8-2.2-4.9,0-4.7,4.1-7.1,12.4-7.1s4.3,0,6.3.1c1.7,0,3.6.4,5.7.8,0,2-.6,3.9-1.7,5.8-1.2,2-2.9,3.7-5.2,5Z"/>
    <path class="cls-1" d="M1221.8,736.9c-3,0-5.4.8-7.3,2.4-1.8,1.6-2.9,3.8-3.3,6.6h-1.4c-.4-2.3-1.2-4.2-2.3-5.6-1.8-2.2-4.2-3.4-7.2-3.4-5.5,0-8.7,3-9.5,9h-1.4l-.8-7.8h-14.4v62.8h15.8v-42c0-4.7,1.5-7,4.5-7s3.8,1.8,3.8,5.3v43.7h11.9v-42c0-4.7,1.4-7,4.3-7s3.8,2.2,3.8,6.5v42.5h15.8v-49.2c0-5.2-1-9-2.9-11.3-2-2.3-5-3.5-9.3-3.5Z"/>
    <path class="cls-1" d="M1292.9,736.9c-3,0-5.4.8-7.3,2.4-1.8,1.6-2.9,3.8-3.3,6.6h-1.4c-.4-2.3-1.2-4.2-2.3-5.6-1.8-2.2-4.2-3.4-7.2-3.4-5.5,0-8.7,3-9.5,9h-1.4l-.8-7.8h-14.4v62.8h15.8v-42c0-4.7,1.5-7,4.5-7s3.8,1.8,3.8,5.3v43.7h11.9v-42c0-4.7,1.4-7,4.3-7s3.8,2.2,3.8,6.5v42.5h15.8v-49.2c0-5.2-1-9-2.9-11.3-2-2.3-5-3.5-9.3-3.5Z"/>
    <path class="cls-1" d="M1346.6,736.9c-9.2,0-16.3,2.8-21.3,8.5-5,5.7-7.6,13.7-7.6,23.9s3,18.6,8.9,24.2c5.9,5.6,14.3,8.4,25.2,8.4s5.5,0,8.8-.3c3.3-.2,7-.7,11-1.4l-1.5-15.2c-2.9.5-5.7.9-8.5,1.2s-5.6.4-8.4.4c-6.3,0-11.2-1.5-14.6-4.6-1.9-1.7-3.2-3.9-4.1-6.5h39.8c.2-2.6.4-5.3.4-8.1,0-10-2.4-17.7-7.3-22.9-4.9-5.2-11.8-7.9-20.8-7.9ZM1333.8,764.7c.4-3.5,1.5-6.4,3.2-8.6,2.3-3,5.6-4.5,9.7-4.5s6.9,1.1,9,3.4c2.2,2.2,3.2,5.5,3.2,9.7h-25.2Z"/>
    <path class="cls-1" d="M1446.2,743.5c-3.2-4.4-7.7-6.6-13.7-6.6-10.1,0-15.4,5.1-16,15.3h-2.2l-1.9-14.2h-24.5v13.7h10.9v35.3h-13.3v13.7h43.9v-13.7h-14.7v-13.3c0-7,1-12.4,2.9-16.2,1.9-3.8,4.9-5.7,8.8-5.7s5.2.8,6.6,2.4c1.4,1.6,2,4.3,2,8h15.9c0-8.3-1.6-14.6-4.8-19Z"/>
  </g>
  <path class="cls-2" d="M1063.5,479.3l17.5-46.1,7,.4-18.5,46.1-6-.4Z"/>
</svg>